<svg xmlns="http://www.w3.org/2000/svg" xmlns:xlink="http://www.w3.org/1999/xlink" version="1.1" id="Layer_1" x="0px" y="0px" viewBox="0 0 512 512" style="enable-background:new 0 0 512 512;" xml:space="preserve">
<circle style="fill:#F74D37;" cx="255.994" cy="262.716" r="226.059"/>
<path style="fill:#C43D2C;" d="M255.993,488.771c0-76.637,0-374.466,0-452.121c60.383,0,117.152,23.514,159.849,66.212l0,0l0,0  c42.697,42.697,66.212,99.465,66.212,159.849s-23.514,117.152-66.212,159.849C373.146,465.256,316.376,488.771,255.993,488.771z"/>
<g>
	<path style="fill:#B03727;" d="M297.665,270.333c0-10.857-8.8-19.657-19.657-19.657H30.253c-0.209,3.986-0.319,7.999-0.319,12.036   c0,9.234,0.568,18.334,1.644,27.278h246.432C288.865,289.991,297.665,281.189,297.665,270.333z"/>
	<path style="fill:#B03727;" d="M230.981,392.477H70.878c10.139,14.438,21.926,27.63,35.084,39.315h125.019   c10.857,0,19.657-8.8,19.657-19.657S241.838,392.477,230.981,392.477z"/>
	<path style="fill:#B03727;" d="M204.854,135.851c10.857,0,19.657-8.8,19.657-19.657s-8.8-19.657-19.657-19.657H102.749   c-12.734,11.749-24.118,24.936-33.884,39.315h135.99V135.851z"/>
</g>
<g>
	<path style="fill:#952F22;" d="M333.744,212.921H476.54c-3.059-13.611-7.346-26.756-12.737-39.315H333.744   c-10.857,0-19.657,8.8-19.657,19.657S322.887,212.921,333.744,212.921z"/>
	<path style="fill:#952F22;" d="M472.542,327.745H352.904c-10.857,0-19.657,8.8-19.657,19.657s8.8,19.657,19.657,19.657h103.663   C463.067,354.592,468.435,341.442,472.542,327.745z"/>
	<path style="fill:#952F22;" d="M278.008,250.676h-22.014v39.315h22.014c10.857,0,19.657-8.8,19.657-19.657   C297.665,259.476,288.865,250.676,278.008,250.676z"/>
</g>



<g>
</g>
<g>
</g>
<g>
</g>
<g>
</g>
<g>
</g>
<g>
</g>
<g>
</g>
<g>
</g>
<g>
</g>
<g>
</g>
<g>
</g>
<g>
</g>
<g>
</g>
<g>
</g>
<g>
</g>
</svg>